<svg width="47" height="12" viewBox="0 0 47 12" fill="none" xmlns="http://www.w3.org/2000/svg">
<g clip-path="url(#clip0_585_1995)">
<path d="M7.71191 0.000976562H10.2719L13.3599 9.10497H13.9039L16.3039 0.000976562H18.8479L16.1279 9.58497C15.9679 10.1503 15.7146 10.585 15.3679 10.889C15.0212 11.1943 14.5279 11.3463 13.8879 11.3463H13.0719C12.4852 11.3463 12.0292 11.189 11.7039 10.8743C11.3786 10.561 11.1306 10.1303 10.9599 9.5863L7.71191 0.000976562Z" fill="#24242C"/>
<path d="M20.207 0.000976562H22.559V7.50497H20.207V0.000976562ZM20.207 8.59297H22.559V11.201H20.207V8.59297Z" fill="#24242C"/>
<path d="M24.2715 0.000976562H26.6235V8.92897H35.1835V11.201H26.0635C25.8075 11.201 25.5701 11.1556 25.3515 11.065C25.1328 10.9743 24.9435 10.849 24.7835 10.689C24.6235 10.529 24.4981 10.3423 24.4075 10.129C24.3168 9.91563 24.2715 9.6863 24.2715 9.43963V0.000976562Z" fill="#24242C"/>
<path d="M36.0146 0.000976562H38.3666V8.92897H46.9266V11.201H37.8066C37.5506 11.201 37.3133 11.1556 37.0946 11.065C36.876 10.9743 36.6866 10.849 36.5266 10.689C36.3666 10.529 36.2413 10.3423 36.1506 10.129C36.06 9.91563 36.0146 9.6863 36.0146 9.43963V0.000976562Z" fill="#24242C"/>
<path d="M0 0.000976562H2.56L4.92799 9.10497H5.50399L7.37599 2.68897L8.75199 6.86497L7.88799 9.61697C7.72799 10.149 7.46933 10.5716 7.11199 10.8796C6.75333 11.189 6.27199 11.345 5.66399 11.345H4.71999C4.12266 11.345 3.65333 11.1903 3.312 10.8796C2.97066 10.5716 2.72533 10.1436 2.576 9.59963L0 0.000976562Z" fill="#367BFF"/>
</g>
<defs>
<clipPath id="clip0_585_1995">
<rect width="46.9266" height="11.3461" fill="white"/>
</clipPath>
</defs>
</svg>
